<svg xmlns="http://www.w3.org/2000/svg" height="800" width="1200" id="svg44" version="1.1" viewBox="-69 -39.4275 598 236.565"><defs id="defs38"><style id="style36"/></defs><g transform="translate(-61.37 -78.62)" id="g42"><path id="path40" d="M97 157.49L79.18 175.3l-17.81-17.81 17.81-17.81zm43.25-43.25l30.53 30.53 17.8-17.77-48.34-48.38L91.9 127l17.81 17.81zm61.06 25.44l-17.81 17.81 17.8 17.81 17.81-17.81zm-61.06 61.06l-30.53-30.53L91.9 188l48.34 48.33L188.58 188l-17.81-17.81zm0-25.44l17.81-17.81-17.81-17.81-17.81 17.81zm114.5-61.07h40.17c9.89 0 17.68 2.72 22.62 7.66a19.85 19.85 0 015.93 14.71v.24c0 9.77-5.19 15.21-11.37 18.67 10 3.83 16.19 9.64 16.19 21.26v.23c0 15.82-12.85 23.73-32.38 23.73h-41.17zm36.09 35c8.41 0 13.72-2.71 13.72-9.14v-.25c0-5.68-4.45-8.9-12.48-8.9h-18.8v18.26zm5.07 34.86c8.41 0 13.47-3 13.47-9.39v-.25c0-5.81-4.32-9.39-14.09-9.39h-22v19zm51.16-69.83h17.56l40.54 53.27v-53.3h18.78v86.51h-16.2l-41.9-55v55h-18.79zm100.73 0H488c9.89 0 17.68 2.72 22.62 7.66a19.85 19.85 0 015.93 14.71v.24c0 9.77-5.19 15.21-11.37 18.67 10 3.83 16.19 9.64 16.19 21.26v.2c0 15.82-12.85 23.73-32.38 23.73h-41.2zm36.09 35c8.41 0 13.72-2.71 13.72-9.14v-.25c0-5.68-4.45-8.9-12.48-8.9h-18.8v18.23zm5.11 34.8c8.41 0 13.47-3 13.47-9.39v-.25c0-5.81-4.32-9.39-14.09-9.39h-22v19z" fill="#f0b90b"/></g></svg>